<?xml version="1.0" encoding="UTF-8"?>
<svg width="600" height="400" viewBox="0 0 600 400" xmlns="http://www.w3.org/2000/svg">
    <!-- 定义渐变 -->
    <defs>
        <linearGradient id="serverGradient" x1="0%" y1="0%" x2="100%" y2="100%">
            <stop offset="0%" style="stop-color:#FF9A9E"/>
            <stop offset="100%" style="stop-color:#FAD0C4"/>
        </linearGradient>
        <linearGradient id="dbGradient" x1="0%" y1="0%" x2="100%" y2="100%">
            <stop offset="0%" style="stop-color:#A1C4FD"/>
            <stop offset="100%" style="stop-color:#C2E9FB"/>
        </linearGradient>
        <linearGradient id="agentGradient" x1="0%" y1="0%" x2="100%" y2="100%">
            <stop offset="0%" style="stop-color:#84FAB0"/>
            <stop offset="100%" style="stop-color:#8FD3F4"/>
        </linearGradient>
        
        <style type="text/css">
            .connection-line {
                stroke-dasharray: 10;
                animation: dash 1.5s linear infinite;
            }
            @keyframes dash {
                to {
                    stroke-dashoffset: -20;
                }
            }
        </style>
    </defs>

    <!-- 背景 -->
    <rect width="600" height="400" fill="#ffffff" rx="15"/>
    
    <!-- Zabbix Server 1 -->
    <g transform="translate(200,100)">
        <rect x="0" y="0" width="80" height="100" fill="url(#serverGradient)" rx="10" filter="url(#shadow)"/>
        <text x="40" y="45" text-anchor="middle" fill="#444" font-family="Arial, sans-serif" font-weight="bold">Z1</text>
        <text x="40" y="140" text-anchor="middle" fill="#444" font-family="Arial, sans-serif" font-size="14">
            Zabbix Server 1
        </text>
    </g>

    <!-- Zabbix Server 2 -->
    <g transform="translate(320,100)">
        <rect x="0" y="0" width="80" height="100" fill="url(#serverGradient)" rx="10" filter="url(#shadow)"/>
        <text x="40" y="45" text-anchor="middle" fill="#444" font-family="Arial, sans-serif" font-weight="bold">Z2</text>
        <text x="40" y="140" text-anchor="middle" fill="#444" font-family="Arial, sans-serif" font-size="14">
            Zabbix Server 2
        </text>
    </g>

    <!-- 数据库 1 -->
    <g transform="translate(200,250)">
        <path d="M0,20 a40,10 0 1,0 80,0 a40,10 0 1,0 -80,0 v60 a40,10 0 1,0 80,0 v-60" 
              fill="url(#dbGradient)" filter="url(#shadow)"/>
        <text x="40" y="100" text-anchor="middle" fill="#444" font-family="Arial, sans-serif" font-size="14">
            Database 1
        </text>
    </g>

    <!-- 数据库 2 -->
    <g transform="translate(320,250)">
        <path d="M0,20 a40,10 0 1,0 80,0 a40,10 0 1,0 -80,0 v60 a40,10 0 1,0 80,0 v-60" 
              fill="url(#dbGradient)" filter="url(#shadow)"/>
        <text x="40" y="100" text-anchor="middle" fill="#444" font-family="Arial, sans-serif" font-size="14">
            Database 2
        </text>
    </g>

    <!-- Agents -->
    <g transform="translate(40,80)">
        <rect width="60" height="40" fill="url(#agentGradient)" rx="8" filter="url(#shadow)"/>
        <text x="30" y="60" text-anchor="middle" fill="#444" font-size="12">Agent 1</text>
    </g>
    
    <g transform="translate(40,180)">
        <rect width="60" height="40" fill="url(#agentGradient)" rx="8" filter="url(#shadow)"/>
        <text x="30" y="60" text-anchor="middle" fill="#444" font-size="12">Agent 2</text>
    </g>
    
    <g transform="translate(40,280)">
        <rect width="60" height="40" fill="url(#agentGradient)" rx="8" filter="url(#shadow)"/>
        <text x="30" y="60" text-anchor="middle" fill="#444" font-size="12">Agent 3</text>
    </g>

    <!-- 连接线 -->
    <!-- Server 到 DB 的连接 -->
    <line class="connection-line" x1="240" y1="200" x2="240" y2="250" stroke="#A1C4FD" stroke-width="2"/>
    <line class="connection-line" x1="360" y1="200" x2="360" y2="250" stroke="#A1C4FD" stroke-width="2"/>
    
    <!-- Agent 到 Server 的连接 -->
    <path class="connection-line" d="M100 100 C150 100, 180 150, 200 150" stroke="#84FAB0" stroke-width="2" fill="none"/>
    <path class="connection-line" d="M100 200 C150 200, 180 150, 200 150" stroke="#84FAB0" stroke-width="2" fill="none"/>
    <path class="connection-line" d="M100 300 C150 300, 180 150, 200 150" stroke="#84FAB0" stroke-width="2" fill="none"/>

    <!-- 阴影效果 -->
    <defs>
        <filter id="shadow" x="-20%" y="-20%" width="140%" height="140%">
            <feGaussianBlur stdDeviation="3" result="shadow"/>
            <feOffset dx="2" dy="2"/>
            <feComposite in="SourceGraphic"/>
        </filter>
    </defs>
</svg> 