<?xml version="1.0" encoding="UTF-8"?>
<svg width="800" height="500" viewBox="0 0 800 500" xmlns="http://www.w3.org/2000/svg">
    <!-- 定义渐变 -->
    <defs>
        <linearGradient id="serverGradient" x1="0%" y1="0%" x2="100%" y2="100%">
            <stop offset="0%" style="stop-color:#FF9A9E"/>
            <stop offset="100%" style="stop-color:#FAD0C4"/>
        </linearGradient>
        <linearGradient id="dbGradient" x1="0%" y1="0%" x2="100%" y2="100%">
            <stop offset="0%" style="stop-color:#A1C4FD"/>
            <stop offset="100%" style="stop-color:#C2E9FB"/>
        </linearGradient>
        <linearGradient id="agentGradient" x1="0%" y1="0%" x2="100%" y2="100%">
            <stop offset="0%" style="stop-color:#84FAB0"/>
            <stop offset="100%" style="stop-color:#8FD3F4"/>
        </linearGradient>
        <linearGradient id="proxyGradient" x1="0%" y1="0%" x2="100%" y2="100%">
            <stop offset="0%" style="stop-color:#FFA07A"/>
            <stop offset="100%" style="stop-color:#FFD700"/>
        </linearGradient>
        
        <style type="text/css">
            .connection-line {
                stroke-dasharray: 10;
                animation: dash 1.5s linear infinite;
            }
            @keyframes dash {
                to {
                    stroke-dashoffset: -20;
                }
            }
        </style>
    </defs>

    <!-- 背景 -->
    <rect width="800" height="500" fill="#ffffff" rx="15"/>
    
    <!-- Zabbix Servers -->
    <g transform="translate(500,50)">
        <rect x="0" y="0" width="80" height="100" fill="url(#serverGradient)" rx="10" filter="url(#shadow)"/>
        <text x="40" y="45" text-anchor="middle" fill="#444" font-family="Arial, sans-serif" font-weight="bold">Z1</text>
        <text x="40" y="140" text-anchor="middle" fill="#444" font-family="Arial, sans-serif" font-size="14">
            Zabbix Server 1
        </text>
    </g>

    <g transform="translate(620,50)">
        <rect x="0" y="0" width="80" height="100" fill="url(#serverGradient)" rx="10" filter="url(#shadow)"/>
        <text x="40" y="45" text-anchor="middle" fill="#444" font-family="Arial, sans-serif" font-weight="bold">Z2</text>
        <text x="40" y="140" text-anchor="middle" fill="#444" font-family="Arial, sans-serif" font-size="14">
            Zabbix Server 2
        </text>
    </g>

    <!-- 数据库 -->
    <g transform="translate(500,200)">
        <path d="M0,20 a40,10 0 1,0 80,0 a40,10 0 1,0 -80,0 v60 a40,10 0 1,0 80,0 v-60" 
              fill="url(#dbGradient)" filter="url(#shadow)"/>
        <text x="40" y="100" text-anchor="middle" fill="#444" font-family="Arial, sans-serif" font-size="14">
            Database 1
        </text>
    </g>

    <g transform="translate(620,200)">
        <path d="M0,20 a40,10 0 1,0 80,0 a40,10 0 1,0 -80,0 v60 a40,10 0 1,0 80,0 v-60" 
              fill="url(#dbGradient)" filter="url(#shadow)"/>
        <text x="40" y="100" text-anchor="middle" fill="#444" font-family="Arial, sans-serif" font-size="14">
            Database 2
        </text>
    </g>

    <!-- Proxies -->
    <g transform="translate(250,150)">
        <rect width="70" height="80" fill="url(#proxyGradient)" rx="8" filter="url(#shadow)"/>
        <text x="35" y="110" text-anchor="middle" fill="#444" font-size="14">Proxy 1</text>
    </g>

    <g transform="translate(250,300)">
        <rect width="70" height="80" fill="url(#proxyGradient)" rx="8" filter="url(#shadow)"/>
        <text x="35" y="110" text-anchor="middle" fill="#444" font-size="14">Proxy 2</text>
    </g>

    <!-- Agents for Proxy 1 -->
    <g transform="translate(40,80)">
        <rect width="60" height="40" fill="url(#agentGradient)" rx="8" filter="url(#shadow)"/>
        <text x="30" y="60" text-anchor="middle" fill="#444" font-size="12">Agent 1</text>
    </g>
    
    <g transform="translate(40,150)">
        <rect width="60" height="40" fill="url(#agentGradient)" rx="8" filter="url(#shadow)"/>
        <text x="30" y="60" text-anchor="middle" fill="#444" font-size="12">Agent 2</text>
    </g>
    
    <g transform="translate(40,220)">
        <rect width="60" height="40" fill="url(#agentGradient)" rx="8" filter="url(#shadow)"/>
        <text x="30" y="60" text-anchor="middle" fill="#444" font-size="12">Agent 3</text>
    </g>

    <!-- Agents for Proxy 2 -->
    <g transform="translate(40,280)">
        <rect width="60" height="40" fill="url(#agentGradient)" rx="8" filter="url(#shadow)"/>
        <text x="30" y="60" text-anchor="middle" fill="#444" font-size="12">Agent 4</text>
    </g>
    
    <g transform="translate(40,350)">
        <rect width="60" height="40" fill="url(#agentGradient)" rx="8" filter="url(#shadow)"/>
        <text x="30" y="60" text-anchor="middle" fill="#444" font-size="12">Agent 5</text>
    </g>
    
    <g transform="translate(40,420)">
        <rect width="60" height="40" fill="url(#agentGradient)" rx="8" filter="url(#shadow)"/>
        <text x="30" y="60" text-anchor="middle" fill="#444" font-size="12">Agent 6</text>
    </g>

    <!-- 连接线 -->
    <!-- Server 到 DB 的连接 -->
    <line class="connection-line" x1="540" y1="150" x2="540" y2="200" stroke="#A1C4FD" stroke-width="2"/>
    <line class="connection-line" x1="660" y1="150" x2="660" y2="200" stroke="#A1C4FD" stroke-width="2"/>
    
    <!-- Proxy 到 Server 的连接 -->
    <path class="connection-line" d="M320 190 C400 190, 450 100, 500 100" stroke="#FFA07A" stroke-width="2" fill="none"/>
    <path class="connection-line" d="M320 340 C400 340, 450 100, 500 100" stroke="#FFA07A" stroke-width="2" fill="none"/>

    <!-- Agent 到 Proxy 的连接 -->
    <!-- Proxy 1 的 Agents -->
    <path class="connection-line" d="M100 100 C150 100, 200 190, 250 190" stroke="#84FAB0" stroke-width="2" fill="none"/>
    <path class="connection-line" d="M100 170 C150 170, 200 190, 250 190" stroke="#84FAB0" stroke-width="2" fill="none"/>
    <path class="connection-line" d="M100 240 C150 240, 200 190, 250 190" stroke="#84FAB0" stroke-width="2" fill="none"/>

    <!-- Proxy 2 的 Agents -->
    <path class="connection-line" d="M100 300 C150 300, 200 340, 250 340" stroke="#84FAB0" stroke-width="2" fill="none"/>
    <path class="connection-line" d="M100 370 C150 370, 200 340, 250 340" stroke="#84FAB0" stroke-width="2" fill="none"/>
    <path class="connection-line" d="M100 440 C150 440, 200 340, 250 340" stroke="#84FAB0" stroke-width="2" fill="none"/>

    <!-- 阴影效果 -->
    <defs>
        <filter id="shadow" x="-20%" y="-20%" width="140%" height="140%">
            <feGaussianBlur stdDeviation="3" result="shadow"/>
            <feOffset dx="2" dy="2"/>
            <feComposite in="SourceGraphic"/>
        </filter>
    </defs>
</svg> 