<?xml version="1.0" encoding="UTF-8"?>
<svg width="400" height="300" viewBox="0 0 400 300" xmlns="http://www.w3.org/2000/svg">
    <!-- 定义渐变 -->
    <defs>
        <!-- Zabbix Server 渐变 -->
        <linearGradient id="serverGradient" x1="0%" y1="0%" x2="100%" y2="100%">
            <stop offset="0%" style="stop-color:#FF9A9E"/>
            <stop offset="100%" style="stop-color:#FAD0C4"/>
        </linearGradient>
        <!-- 数据库渐变 -->
        <linearGradient id="dbGradient" x1="0%" y1="0%" x2="100%" y2="100%">
            <stop offset="0%" style="stop-color:#A1C4FD"/>
            <stop offset="100%" style="stop-color:#C2E9FB"/>
        </linearGradient>
        <!-- Agent 渐变 -->
        <linearGradient id="agentGradient" x1="0%" y1="0%" x2="100%" y2="100%">
            <stop offset="0%" style="stop-color:#84FAB0"/>
            <stop offset="100%" style="stop-color:#8FD3F4"/>
        </linearGradient>
        <!-- Proxy 渐变 -->
        <linearGradient id="proxyGradient" x1="0%" y1="0%" x2="100%" y2="100%">
            <stop offset="0%" style="stop-color:#FFA07A"/>
            <stop offset="100%" style="stop-color:#FFD700"/>
        </linearGradient>
        
        <!-- 动画线条 -->
        <style type="text/css">
            .connection-line {
                stroke-dasharray: 10;
                animation: dash 1.5s linear infinite;
            }
            @keyframes dash {
                to {
                    stroke-dashoffset: -20;
                }
            }
        </style>
    </defs>

    <!-- 背景 -->
    <rect width="400" height="300" fill="#ffffff" rx="15"/>
    
    <!-- Zabbix Server -->
    <g transform="translate(300,40)">
        <rect x="0" y="0" width="70" height="80" fill="url(#serverGradient)" rx="10" filter="url(#shadow)"/>
        <text x="35" y="45" text-anchor="middle" fill="#444" font-family="Arial, sans-serif" font-weight="bold">Z</text>
        <text x="35" y="100" text-anchor="middle" fill="#444" font-family="Arial, sans-serif" font-size="12">
            Zabbix Server
        </text>
    </g>

    <!-- Server 数据库 -->
    <g transform="translate(300,140)">
        <path d="M0,15 
                 a35,8 0 1,0 70,0
                 a35,8 0 1,0 -70,0
                 v40
                 a35,8 0 1,0 70,0
                 v-40" 
              fill="url(#dbGradient)" filter="url(#shadow)"/>
        <text x="35" y="80" text-anchor="middle" fill="#444" font-family="Arial, sans-serif" font-size="12">
            Server DB
        </text>
    </g>

    <!-- Proxy -->
    <g transform="translate(160,100)">
        <rect x="0" y="0" width="70" height="80" fill="url(#proxyGradient)" rx="10" filter="url(#shadow)"/>
        <text x="35" y="45" text-anchor="middle" fill="#444" font-family="Arial, sans-serif" font-weight="bold">P</text>
        <text x="35" y="100" text-anchor="middle" fill="#444" font-family="Arial, sans-serif" font-size="12">
            Zabbix Proxy
        </text>
    </g>

    <!-- Proxy 数据库 -->
    <g transform="translate(160,200)">
        <path d="M0,15 
                 a35,8 0 1,0 70,0
                 a35,8 0 1,0 -70,0
                 v40
                 a35,8 0 1,0 70,0
                 v-40" 
              fill="url(#dbGradient)" filter="url(#shadow)"/>
        <text x="35" y="80" text-anchor="middle" fill="#444" font-family="Arial, sans-serif" font-size="12">
            Proxy DB
        </text>
    </g>

    <!-- Agents -->
    <g transform="translate(20,60)">
        <rect width="50" height="35" fill="url(#agentGradient)" rx="8" filter="url(#shadow)"/>
        <text x="25" y="55" text-anchor="middle" fill="#444" font-size="12">Agent 1</text>
    </g>
    
    <g transform="translate(20,120)">
        <rect width="50" height="35" fill="url(#agentGradient)" rx="8" filter="url(#shadow)"/>
        <text x="25" y="55" text-anchor="middle" fill="#444" font-size="12">Agent 2</text>
    </g>
    
    <g transform="translate(20,180)">
        <rect width="50" height="35" fill="url(#agentGradient)" rx="8" filter="url(#shadow)"/>
        <text x="25" y="55" text-anchor="middle" fill="#444" font-size="12">Agent 3</text>
    </g>

    <!-- 连接线 -->
    <!-- Server 到数据库 -->
    <line class="connection-line" x1="335" y1="120" x2="335" y2="140" 
          stroke="#A1C4FD" stroke-width="2"/>
          
    <!-- Proxy 到数据库 -->
    <line class="connection-line" x1="195" y1="180" x2="195" y2="200" 
          stroke="#A1C4FD" stroke-width="2"/>

    <!-- Proxy 到 Server -->
    <path class="connection-line" 
          d="M230 140 C265 140, 265 80, 300 80" 
          stroke="#FFA07A" stroke-width="2" fill="none"/>

    <!-- Agents 到 Proxy -->
    <path class="connection-line" 
          d="M70 77 C115 77, 115 140, 160 140" 
          stroke="#84FAB0" stroke-width="2" fill="none"/>
    <path class="connection-line" 
          d="M70 137 C115 137, 115 140, 160 140" 
          stroke="#84FAB0" stroke-width="2" fill="none"/>
    <path class="connection-line" 
          d="M70 197 C115 197, 115 140, 160 140" 
          stroke="#84FAB0" stroke-width="2" fill="none"/>

    <!-- 阴影效果 -->
    <defs>
        <filter id="shadow" x="-20%" y="-20%" width="140%" height="140%">
            <feGaussianBlur stdDeviation="3" result="shadow"/>
            <feOffset dx="2" dy="2"/>
            <feComposite in="SourceGraphic"/>
        </filter>
    </defs>
</svg> 